<svg xmlns="http://www.w3.org/2000/svg" xmlns:xlink="http://www.w3.org/1999/xlink" width="500" zoomAndPan="magnify" viewBox="0 0 375 374.999991" height="500" preserveAspectRatio="xMidYMid meet" version="1.2"><defs><clipPath id="d43595b835"><path d="M 69.835938 37.5 L 172 37.5 L 172 154 L 69.835938 154 Z M 69.835938 37.5 "/></clipPath><clipPath id="238d9897aa"><path d="M 203 87 L 305.335938 87 L 305.335938 204 L 203 204 Z M 203 87 "/></clipPath><clipPath id="3553ccca45"><path d="M 203 37.5 L 261 37.5 L 261 109 L 203 109 Z M 203 37.5 "/></clipPath><clipPath id="db02174296"><rect x="0" width="334" y="0" height="91"/></clipPath><clipPath id="86c52c5b63"><rect x="0" width="190" y="0" height="26"/></clipPath></defs><g id="12d38abe9e"><g clip-rule="nonzero" clip-path="url(#d43595b835)"><path style=" stroke:none;fill-rule:nonzero;fill:#101010;fill-opacity:1;" d="M 69.835938 120.59375 L 171.480469 37.578125 L 171.480469 93.304688 L 129.453125 127.628906 L 115.613281 138.933594 C 111.847656 142.007812 109.6875 146.558594 109.6875 151.421875 C 109.6875 152.027344 109.722656 152.625 109.785156 153.21875 Z M 69.835938 120.59375 "/></g><path style=" stroke:none;fill-rule:nonzero;fill:#6b79ed;fill-opacity:1;" d="M 118.519531 160.347656 C 115.828125 158.152344 114.28125 154.898438 114.28125 151.421875 C 114.28125 147.945312 115.828125 144.691406 118.519531 142.492188 L 130.90625 132.375 L 171.480469 165.515625 L 171.480469 203.605469 Z M 118.519531 160.347656 "/><g clip-rule="nonzero" clip-path="url(#238d9897aa)"><path style=" stroke:none;fill-rule:nonzero;fill:#101010;fill-opacity:1;" d="M 203.523438 147.882812 L 245.550781 113.554688 L 259.394531 102.253906 C 263.15625 99.175781 265.316406 94.625 265.316406 89.765625 C 265.316406 89.160156 265.285156 88.558594 265.21875 87.96875 L 305.167969 120.59375 L 203.523438 203.605469 Z M 203.523438 147.882812 "/></g><g clip-rule="nonzero" clip-path="url(#3553ccca45)"><path style=" stroke:none;fill-rule:nonzero;fill:#6b79ed;fill-opacity:1;" d="M 203.523438 75.667969 L 203.523438 37.578125 L 256.484375 80.835938 C 259.179688 83.035156 260.722656 86.289062 260.722656 89.765625 C 260.722656 93.242188 259.179688 96.496094 256.484375 98.691406 L 244.097656 108.808594 Z M 203.523438 75.667969 "/></g><g transform="matrix(1,0,0,1,20,220)"><g clip-path="url(#db02174296)"><g style="fill:#101010;fill-opacity:1;"><g transform="translate(1.558447, 70.431824)"><path style="stroke:none" d="M 35.296875 0 L 31.8125 -11.5625 L 15.59375 -11.5625 L 12.109375 0 L 1.390625 0 L 17.40625 -48.59375 L 30.484375 -48.59375 L 46.296875 0 Z M 23.8125 -38.984375 L 23.453125 -38.984375 L 18.09375 -20.53125 L 29.234375 -20.53125 Z M 23.8125 -38.984375 "/></g></g><g style="fill:#101010;fill-opacity:1;"><g transform="translate(46.937516, 70.431824)"><path style="stroke:none" d="M 17.1875 0.828125 C 13.664062 0.828125 10.695312 0.257812 8.28125 -0.875 C 5.863281 -2.007812 3.707031 -3.617188 1.8125 -5.703125 L 7.859375 -11.828125 C 9.160156 -10.390625 10.597656 -9.253906 12.171875 -8.421875 C 13.753906 -7.585938 15.546875 -7.171875 17.546875 -7.171875 C 19.585938 -7.171875 21 -7.484375 21.78125 -8.109375 C 22.570312 -8.734375 22.96875 -9.582031 22.96875 -10.65625 C 22.96875 -12.363281 21.738281 -13.382812 19.28125 -13.71875 L 15.3125 -14.203125 C 7.101562 -15.222656 3 -18.984375 3 -25.484375 C 3 -27.242188 3.332031 -28.851562 4 -30.3125 C 4.675781 -31.769531 5.628906 -33.019531 6.859375 -34.0625 C 8.085938 -35.113281 9.570312 -35.925781 11.3125 -36.5 C 13.050781 -37.082031 15.007812 -37.375 17.1875 -37.375 C 19.09375 -37.375 20.773438 -37.242188 22.234375 -36.984375 C 23.703125 -36.734375 25.003906 -36.363281 26.140625 -35.875 C 27.273438 -35.394531 28.316406 -34.796875 29.265625 -34.078125 C 30.222656 -33.359375 31.164062 -32.554688 32.09375 -31.671875 L 26.171875 -25.609375 C 25.015625 -26.773438 23.703125 -27.691406 22.234375 -28.359375 C 20.773438 -29.035156 19.28125 -29.375 17.75 -29.375 C 15.988281 -29.375 14.734375 -29.09375 13.984375 -28.53125 C 13.242188 -27.976562 12.875 -27.238281 12.875 -26.3125 C 12.875 -25.332031 13.140625 -24.578125 13.671875 -24.046875 C 14.210938 -23.515625 15.222656 -23.132812 16.703125 -22.90625 L 20.8125 -22.34375 C 28.84375 -21.28125 32.859375 -17.613281 32.859375 -11.34375 C 32.859375 -9.582031 32.484375 -7.957031 31.734375 -6.46875 C 30.992188 -4.988281 29.9375 -3.703125 28.5625 -2.609375 C 27.195312 -1.515625 25.550781 -0.664062 23.625 -0.0625 C 21.707031 0.53125 19.5625 0.828125 17.1875 0.828125 Z M 17.1875 0.828125 "/></g></g><g style="fill:#101010;fill-opacity:1;"><g transform="translate(79.71889, 70.431824)"><path style="stroke:none" d="M 4.796875 -51.515625 L 15.109375 -51.515625 L 15.109375 -21.09375 L 15.515625 -21.09375 L 20.046875 -27.84375 L 27.359375 -36.546875 L 38.765625 -36.546875 L 26.59375 -22.546875 L 40.171875 0 L 27.90625 0 L 19.703125 -15.453125 L 15.109375 -10.296875 L 15.109375 0 L 4.796875 0 Z M 4.796875 -51.515625 "/></g></g><g style="fill:#101010;fill-opacity:1;"><g transform="translate(117.581094, 70.431824)"><path style="stroke:none" d="M 21.09375 0.828125 C 16.820312 0.828125 13.203125 0.0976562 10.234375 -1.359375 C 7.265625 -2.816406 4.734375 -4.707031 2.640625 -7.03125 L 9.609375 -14.0625 C 12.898438 -10.351562 16.957031 -8.5 21.78125 -8.5 C 24.382812 -8.5 26.3125 -9.03125 27.5625 -10.09375 C 28.8125 -11.15625 29.4375 -12.570312 29.4375 -14.34375 C 29.4375 -15.6875 29.066406 -16.8125 28.328125 -17.71875 C 27.585938 -18.625 26.082031 -19.238281 23.8125 -19.5625 L 19 -20.1875 C 13.851562 -20.832031 10.082031 -22.382812 7.6875 -24.84375 C 5.300781 -27.3125 4.109375 -30.585938 4.109375 -34.671875 C 4.109375 -36.847656 4.523438 -38.835938 5.359375 -40.640625 C 6.191406 -42.453125 7.382812 -44.007812 8.9375 -45.3125 C 10.5 -46.613281 12.40625 -47.625 14.65625 -48.34375 C 16.90625 -49.0625 19.46875 -49.421875 22.34375 -49.421875 C 26.007812 -49.421875 29.234375 -48.835938 32.015625 -47.671875 C 34.804688 -46.515625 37.195312 -44.820312 39.1875 -42.59375 L 32.15625 -35.5 C 31 -36.84375 29.597656 -37.941406 27.953125 -38.796875 C 26.304688 -39.660156 24.226562 -40.09375 21.71875 -40.09375 C 19.351562 -40.09375 17.585938 -39.675781 16.421875 -38.84375 C 15.265625 -38.007812 14.6875 -36.847656 14.6875 -35.359375 C 14.6875 -33.691406 15.140625 -32.484375 16.046875 -31.734375 C 16.953125 -30.992188 18.425781 -30.460938 20.46875 -30.140625 L 25.265625 -29.375 C 30.273438 -28.582031 33.988281 -27.035156 36.40625 -24.734375 C 38.820312 -22.441406 40.03125 -19.1875 40.03125 -14.96875 C 40.03125 -12.644531 39.609375 -10.507812 38.765625 -8.5625 C 37.929688 -6.613281 36.710938 -4.941406 35.109375 -3.546875 C 33.515625 -2.160156 31.53125 -1.082031 29.15625 -0.3125 C 26.789062 0.445312 24.101562 0.828125 21.09375 0.828125 Z M 21.09375 0.828125 "/></g></g><g style="fill:#101010;fill-opacity:1;"><g transform="translate(158.714529, 70.431824)"><path style="stroke:none" d="M 27.140625 -36.546875 L 36.75 -36.546875 L 22.6875 5.640625 C 21.757812 8.472656 20.445312 10.5625 18.75 11.90625 C 17.0625 13.25 14.640625 13.921875 11.484375 13.921875 L 5.078125 13.921875 L 5.078125 5.921875 L 11.96875 5.921875 L 13.21875 1.875 L 0.421875 -36.546875 L 10.65625 -36.546875 L 16.015625 -19.484375 L 18.65625 -8.90625 L 19.078125 -8.90625 L 21.78125 -19.484375 Z M 27.140625 -36.546875 "/></g></g><g style="fill:#101010;fill-opacity:1;"><g transform="translate(193.583923, 70.431824)"><path style="stroke:none" d="M 4.796875 0 L 4.796875 -36.546875 L 15.109375 -36.546875 L 15.109375 -30.34375 L 15.515625 -30.34375 C 16.171875 -32.25 17.3125 -33.894531 18.9375 -35.28125 C 20.5625 -36.675781 22.8125 -37.375 25.6875 -37.375 C 29.445312 -37.375 32.289062 -36.117188 34.21875 -33.609375 C 36.144531 -31.109375 37.109375 -27.539062 37.109375 -22.90625 L 37.109375 0 L 26.796875 0 L 26.796875 -22.0625 C 26.796875 -24.425781 26.425781 -26.175781 25.6875 -27.3125 C 24.945312 -28.457031 23.625 -29.03125 21.71875 -29.03125 C 20.882812 -29.03125 20.070312 -28.925781 19.28125 -28.71875 C 18.488281 -28.507812 17.78125 -28.171875 17.15625 -27.703125 C 16.53125 -27.242188 16.03125 -26.675781 15.65625 -26 C 15.289062 -25.320312 15.109375 -24.546875 15.109375 -23.671875 L 15.109375 0 Z M 4.796875 0 "/></g></g><g style="fill:#101010;fill-opacity:1;"><g transform="translate(232.768547, 70.431824)"><path style="stroke:none" d="M 17.609375 0 C 14.035156 0 11.332031 -0.898438 9.5 -2.703125 C 7.664062 -4.515625 6.75 -7.164062 6.75 -10.65625 L 6.75 -28.546875 L 1.59375 -28.546875 L 1.59375 -36.546875 L 4.171875 -36.546875 C 5.566406 -36.546875 6.519531 -36.878906 7.03125 -37.546875 C 7.539062 -38.222656 7.796875 -39.1875 7.796875 -40.4375 L 7.796875 -46.421875 L 17.046875 -46.421875 L 17.046875 -36.546875 L 24.296875 -36.546875 L 24.296875 -28.546875 L 17.046875 -28.546875 L 17.046875 -8 L 23.734375 -8 L 23.734375 0 Z M 17.609375 0 "/></g></g><g style="fill:#101010;fill-opacity:1;"><g transform="translate(257.128247, 70.431824)"><path style="stroke:none" d="M 31.8125 0 C 29.957031 0 28.414062 -0.578125 27.1875 -1.734375 C 25.957031 -2.898438 25.175781 -4.457031 24.84375 -6.40625 L 24.4375 -6.40625 C 23.875 -4.039062 22.640625 -2.242188 20.734375 -1.015625 C 18.835938 0.210938 16.5 0.828125 13.71875 0.828125 C 10.050781 0.828125 7.238281 -0.144531 5.28125 -2.09375 C 3.332031 -4.039062 2.359375 -6.613281 2.359375 -9.8125 C 2.359375 -13.664062 3.765625 -16.53125 6.578125 -18.40625 C 9.390625 -20.289062 13.207031 -21.234375 18.03125 -21.234375 L 23.8125 -21.234375 L 23.8125 -23.53125 C 23.8125 -25.289062 23.34375 -26.691406 22.40625 -27.734375 C 21.476562 -28.785156 19.925781 -29.3125 17.75 -29.3125 C 15.707031 -29.3125 14.082031 -28.867188 12.875 -27.984375 C 11.664062 -27.097656 10.671875 -26.097656 9.890625 -24.984375 L 3.765625 -30.421875 C 5.242188 -32.597656 7.109375 -34.300781 9.359375 -35.53125 C 11.609375 -36.757812 14.660156 -37.375 18.515625 -37.375 C 23.710938 -37.375 27.609375 -36.238281 30.203125 -33.96875 C 32.804688 -31.695312 34.109375 -28.378906 34.109375 -24.015625 L 34.109375 -8 L 37.515625 -8 L 37.515625 0 Z M 17.546875 -6.328125 C 19.253906 -6.328125 20.722656 -6.695312 21.953125 -7.4375 C 23.191406 -8.1875 23.8125 -9.394531 23.8125 -11.0625 L 23.8125 -15.390625 L 18.796875 -15.390625 C 14.753906 -15.390625 12.734375 -14.019531 12.734375 -11.28125 L 12.734375 -10.234375 C 12.734375 -8.890625 13.148438 -7.898438 13.984375 -7.265625 C 14.828125 -6.640625 16.015625 -6.328125 17.546875 -6.328125 Z M 17.546875 -6.328125 "/></g></g><g style="fill:#101010;fill-opacity:1;"><g transform="translate(294.433655, 70.431824)"><path style="stroke:none" d="M 1.25 0 L 13.296875 -18.578125 L 1.390625 -36.546875 L 13.09375 -36.546875 L 19.90625 -25.0625 L 20.1875 -25.0625 L 26.796875 -36.546875 L 37.65625 -36.546875 L 25.546875 -18.234375 L 37.734375 0 L 26.03125 0 L 19 -11.90625 L 18.71875 -11.90625 L 11.96875 0 Z M 1.25 0 "/></g></g></g></g><g transform="matrix(1,0,0,1,93,314)"><g clip-path="url(#86c52c5b63)"><g style="fill:#101010;fill-opacity:1;"><g transform="translate(2.120659, 19.904773)"><path style="stroke:none" d="M 5.4375 0.21875 C 4.34375 0.21875 3.410156 0.03125 2.640625 -0.34375 C 1.867188 -0.726562 1.21875 -1.21875 0.6875 -1.8125 L 2.484375 -3.625 C 3.328125 -2.664062 4.375 -2.1875 5.625 -2.1875 C 6.289062 -2.1875 6.785156 -2.320312 7.109375 -2.59375 C 7.429688 -2.875 7.59375 -3.242188 7.59375 -3.703125 C 7.59375 -4.046875 7.5 -4.332031 7.3125 -4.5625 C 7.125 -4.800781 6.734375 -4.960938 6.140625 -5.046875 L 4.90625 -5.203125 C 3.570312 -5.378906 2.597656 -5.78125 1.984375 -6.40625 C 1.367188 -7.039062 1.0625 -7.890625 1.0625 -8.953125 C 1.0625 -9.515625 1.164062 -10.023438 1.375 -10.484375 C 1.59375 -10.953125 1.898438 -11.351562 2.296875 -11.6875 C 2.703125 -12.03125 3.195312 -12.289062 3.78125 -12.46875 C 4.363281 -12.65625 5.023438 -12.75 5.765625 -12.75 C 6.710938 -12.75 7.546875 -12.597656 8.265625 -12.296875 C 8.984375 -12.003906 9.597656 -11.570312 10.109375 -11 L 8.296875 -9.15625 C 8.003906 -9.507812 7.644531 -9.796875 7.21875 -10.015625 C 6.789062 -10.234375 6.253906 -10.34375 5.609375 -10.34375 C 4.992188 -10.34375 4.535156 -10.234375 4.234375 -10.015625 C 3.941406 -9.804688 3.796875 -9.507812 3.796875 -9.125 C 3.796875 -8.695312 3.910156 -8.382812 4.140625 -8.1875 C 4.367188 -8 4.75 -7.863281 5.28125 -7.78125 L 6.515625 -7.578125 C 7.816406 -7.378906 8.773438 -6.984375 9.390625 -6.390625 C 10.015625 -5.796875 10.328125 -4.953125 10.328125 -3.859375 C 10.328125 -3.265625 10.21875 -2.710938 10 -2.203125 C 9.789062 -1.703125 9.476562 -1.269531 9.0625 -0.90625 C 8.644531 -0.550781 8.128906 -0.273438 7.515625 -0.078125 C 6.910156 0.117188 6.21875 0.21875 5.4375 0.21875 Z M 5.4375 0.21875 "/></g></g><g style="fill:#101010;fill-opacity:1;"><g transform="translate(15.040941, 19.904773)"><path style="stroke:none" d="M 6.421875 0.21875 C 5.585938 0.21875 4.828125 0.0820312 4.140625 -0.1875 C 3.460938 -0.46875 2.882812 -0.878906 2.40625 -1.421875 C 1.925781 -1.972656 1.550781 -2.648438 1.28125 -3.453125 C 1.019531 -4.265625 0.890625 -5.203125 0.890625 -6.265625 C 0.890625 -7.335938 1.019531 -8.273438 1.28125 -9.078125 C 1.550781 -9.890625 1.925781 -10.566406 2.40625 -11.109375 C 2.882812 -11.660156 3.460938 -12.070312 4.140625 -12.34375 C 4.828125 -12.613281 5.585938 -12.75 6.421875 -12.75 C 7.242188 -12.75 7.992188 -12.613281 8.671875 -12.34375 C 9.359375 -12.070312 9.941406 -11.660156 10.421875 -11.109375 C 10.898438 -10.566406 11.269531 -9.890625 11.53125 -9.078125 C 11.800781 -8.273438 11.9375 -7.335938 11.9375 -6.265625 C 11.9375 -5.203125 11.800781 -4.265625 11.53125 -3.453125 C 11.269531 -2.648438 10.898438 -1.972656 10.421875 -1.421875 C 9.941406 -0.878906 9.359375 -0.46875 8.671875 -0.1875 C 7.992188 0.0820312 7.242188 0.21875 6.421875 0.21875 Z M 6.421875 -2.203125 C 7.242188 -2.203125 7.882812 -2.472656 8.34375 -3.015625 C 8.800781 -3.554688 9.03125 -4.332031 9.03125 -5.34375 L 9.03125 -7.203125 C 9.03125 -8.210938 8.800781 -8.984375 8.34375 -9.515625 C 7.882812 -10.054688 7.242188 -10.328125 6.421875 -10.328125 C 5.585938 -10.328125 4.941406 -10.054688 4.484375 -9.515625 C 4.023438 -8.984375 3.796875 -8.210938 3.796875 -7.203125 L 3.796875 -5.34375 C 3.796875 -4.332031 4.023438 -3.554688 4.484375 -3.015625 C 4.941406 -2.472656 5.585938 -2.203125 6.421875 -2.203125 Z M 6.421875 -2.203125 "/></g></g><g style="fill:#101010;fill-opacity:1;"><g transform="translate(29.578415, 19.904773)"><path style="stroke:none" d="M 1.390625 0 L 1.390625 -12.546875 L 9.703125 -12.546875 L 9.703125 -10.109375 L 4.109375 -10.109375 L 4.109375 -7.546875 L 8.875 -7.546875 L 8.875 -5.140625 L 4.109375 -5.140625 L 4.109375 0 Z M 1.390625 0 "/></g></g><g style="fill:#101010;fill-opacity:1;"><g transform="translate(41.797896, 19.904773)"><path style="stroke:none" d="M 6.609375 -10.109375 L 6.609375 0 L 3.875 0 L 3.875 -10.109375 L 0.484375 -10.109375 L 0.484375 -12.546875 L 10.015625 -12.546875 L 10.015625 -10.109375 Z M 6.609375 -10.109375 "/></g></g><g style="fill:#101010;fill-opacity:1;"><g transform="translate(53.999418, 19.904773)"><path style="stroke:none" d="M 3.359375 0 L 0.515625 -12.546875 L 3.21875 -12.546875 L 4.40625 -6.515625 L 5.0625 -3.03125 L 5.125 -3.03125 L 5.90625 -6.515625 L 7.296875 -12.546875 L 10.28125 -12.546875 L 11.671875 -6.515625 L 12.453125 -3.03125 L 12.5 -3.03125 L 13.171875 -6.515625 L 14.375 -12.546875 L 16.96875 -12.546875 L 14.046875 0 L 10.9375 0 L 9.359375 -6.796875 L 8.75 -9.546875 L 8.703125 -9.546875 L 8.0625 -6.796875 L 6.484375 0 Z M 3.359375 0 "/></g></g><g style="fill:#101010;fill-opacity:1;"><g transform="translate(73.190816, 19.904773)"><path style="stroke:none" d="M 9.109375 0 L 8.21875 -2.984375 L 4.03125 -2.984375 L 3.125 0 L 0.359375 0 L 4.484375 -12.546875 L 7.875 -12.546875 L 11.953125 0 Z M 6.140625 -10.0625 L 6.0625 -10.0625 L 4.671875 -5.296875 L 7.546875 -5.296875 Z M 6.140625 -10.0625 "/></g></g><g style="fill:#101010;fill-opacity:1;"><g transform="translate(87.207185, 19.904773)"><path style="stroke:none" d="M 4.109375 0 L 1.390625 0 L 1.390625 -12.546875 L 7.328125 -12.546875 C 7.898438 -12.546875 8.421875 -12.445312 8.890625 -12.25 C 9.359375 -12.0625 9.753906 -11.789062 10.078125 -11.4375 C 10.410156 -11.082031 10.664062 -10.660156 10.84375 -10.171875 C 11.03125 -9.679688 11.125 -9.132812 11.125 -8.53125 C 11.125 -7.6875 10.929688 -6.945312 10.546875 -6.3125 C 10.171875 -5.675781 9.601562 -5.210938 8.84375 -4.921875 L 11.296875 0 L 8.265625 0 L 6.078125 -4.59375 L 4.109375 -4.59375 Z M 6.984375 -6.90625 C 7.390625 -6.90625 7.707031 -7.007812 7.9375 -7.21875 C 8.175781 -7.425781 8.296875 -7.734375 8.296875 -8.140625 L 8.296875 -8.9375 C 8.296875 -9.34375 8.175781 -9.648438 7.9375 -9.859375 C 7.707031 -10.066406 7.390625 -10.171875 6.984375 -10.171875 L 4.109375 -10.171875 L 4.109375 -6.90625 Z M 6.984375 -6.90625 "/></g></g><g style="fill:#101010;fill-opacity:1;"><g transform="translate(101.0259, 19.904773)"><path style="stroke:none" d="M 1.390625 0 L 1.390625 -12.546875 L 9.921875 -12.546875 L 9.921875 -10.109375 L 4.109375 -10.109375 L 4.109375 -7.546875 L 9.09375 -7.546875 L 9.09375 -5.140625 L 4.109375 -5.140625 L 4.109375 -2.421875 L 9.921875 -2.421875 L 9.921875 0 Z M 1.390625 0 "/></g></g><g style="fill:#101010;fill-opacity:1;"><g transform="translate(113.64071, 19.904773)"><path style="stroke:none" d=""/></g></g><g style="fill:#101010;fill-opacity:1;"><g transform="translate(119.589075, 19.904773)"><path style="stroke:none" d="M 8.890625 -5.140625 L 4.109375 -5.140625 L 4.109375 0 L 1.390625 0 L 1.390625 -12.546875 L 4.109375 -12.546875 L 4.109375 -7.546875 L 8.890625 -7.546875 L 8.890625 -12.546875 L 11.625 -12.546875 L 11.625 0 L 8.890625 0 Z M 8.890625 -5.140625 "/></g></g><g style="fill:#101010;fill-opacity:1;"><g transform="translate(134.306223, 19.904773)"><path style="stroke:none" d="M 6.421875 0.21875 C 5.585938 0.21875 4.828125 0.0820312 4.140625 -0.1875 C 3.460938 -0.46875 2.882812 -0.878906 2.40625 -1.421875 C 1.925781 -1.972656 1.550781 -2.648438 1.28125 -3.453125 C 1.019531 -4.265625 0.890625 -5.203125 0.890625 -6.265625 C 0.890625 -7.335938 1.019531 -8.273438 1.28125 -9.078125 C 1.550781 -9.890625 1.925781 -10.566406 2.40625 -11.109375 C 2.882812 -11.660156 3.460938 -12.070312 4.140625 -12.34375 C 4.828125 -12.613281 5.585938 -12.75 6.421875 -12.75 C 7.242188 -12.75 7.992188 -12.613281 8.671875 -12.34375 C 9.359375 -12.070312 9.941406 -11.660156 10.421875 -11.109375 C 10.898438 -10.566406 11.269531 -9.890625 11.53125 -9.078125 C 11.800781 -8.273438 11.9375 -7.335938 11.9375 -6.265625 C 11.9375 -5.203125 11.800781 -4.265625 11.53125 -3.453125 C 11.269531 -2.648438 10.898438 -1.972656 10.421875 -1.421875 C 9.941406 -0.878906 9.359375 -0.46875 8.671875 -0.1875 C 7.992188 0.0820312 7.242188 0.21875 6.421875 0.21875 Z M 6.421875 -2.203125 C 7.242188 -2.203125 7.882812 -2.472656 8.34375 -3.015625 C 8.800781 -3.554688 9.03125 -4.332031 9.03125 -5.34375 L 9.03125 -7.203125 C 9.03125 -8.210938 8.800781 -8.984375 8.34375 -9.515625 C 7.882812 -10.054688 7.242188 -10.328125 6.421875 -10.328125 C 5.585938 -10.328125 4.941406 -10.054688 4.484375 -9.515625 C 4.023438 -8.984375 3.796875 -8.210938 3.796875 -7.203125 L 3.796875 -5.34375 C 3.796875 -4.332031 4.023438 -3.554688 4.484375 -3.015625 C 4.941406 -2.472656 5.585938 -2.203125 6.421875 -2.203125 Z M 6.421875 -2.203125 "/></g></g><g style="fill:#101010;fill-opacity:1;"><g transform="translate(148.843697, 19.904773)"><path style="stroke:none" d="M 3.96875 -12.546875 L 3.96875 -4.84375 C 3.96875 -3.957031 4.140625 -3.296875 4.484375 -2.859375 C 4.835938 -2.421875 5.421875 -2.203125 6.234375 -2.203125 C 7.046875 -2.203125 7.625 -2.421875 7.96875 -2.859375 C 8.320312 -3.296875 8.5 -3.957031 8.5 -4.84375 L 8.5 -12.546875 L 11.15625 -12.546875 L 11.15625 -5.140625 C 11.15625 -4.210938 11.066406 -3.410156 10.890625 -2.734375 C 10.722656 -2.054688 10.441406 -1.5 10.046875 -1.0625 C 9.648438 -0.625 9.140625 -0.300781 8.515625 -0.09375 C 7.890625 0.113281 7.128906 0.21875 6.234375 0.21875 C 5.335938 0.21875 4.578125 0.113281 3.953125 -0.09375 C 3.328125 -0.300781 2.816406 -0.625 2.421875 -1.0625 C 2.023438 -1.5 1.738281 -2.054688 1.5625 -2.734375 C 1.394531 -3.410156 1.3125 -4.210938 1.3125 -5.140625 L 1.3125 -12.546875 Z M 3.96875 -12.546875 "/></g></g><g style="fill:#101010;fill-opacity:1;"><g transform="translate(163.021781, 19.904773)"><path style="stroke:none" d="M 5.4375 0.21875 C 4.34375 0.21875 3.410156 0.03125 2.640625 -0.34375 C 1.867188 -0.726562 1.21875 -1.21875 0.6875 -1.8125 L 2.484375 -3.625 C 3.328125 -2.664062 4.375 -2.1875 5.625 -2.1875 C 6.289062 -2.1875 6.785156 -2.320312 7.109375 -2.59375 C 7.429688 -2.875 7.59375 -3.242188 7.59375 -3.703125 C 7.59375 -4.046875 7.5 -4.332031 7.3125 -4.5625 C 7.125 -4.800781 6.734375 -4.960938 6.140625 -5.046875 L 4.90625 -5.203125 C 3.570312 -5.378906 2.597656 -5.78125 1.984375 -6.40625 C 1.367188 -7.039062 1.0625 -7.890625 1.0625 -8.953125 C 1.0625 -9.515625 1.164062 -10.023438 1.375 -10.484375 C 1.59375 -10.953125 1.898438 -11.351562 2.296875 -11.6875 C 2.703125 -12.03125 3.195312 -12.289062 3.78125 -12.46875 C 4.363281 -12.65625 5.023438 -12.75 5.765625 -12.75 C 6.710938 -12.75 7.546875 -12.597656 8.265625 -12.296875 C 8.984375 -12.003906 9.597656 -11.570312 10.109375 -11 L 8.296875 -9.15625 C 8.003906 -9.507812 7.644531 -9.796875 7.21875 -10.015625 C 6.789062 -10.234375 6.253906 -10.34375 5.609375 -10.34375 C 4.992188 -10.34375 4.535156 -10.234375 4.234375 -10.015625 C 3.941406 -9.804688 3.796875 -9.507812 3.796875 -9.125 C 3.796875 -8.695312 3.910156 -8.382812 4.140625 -8.1875 C 4.367188 -8 4.75 -7.863281 5.28125 -7.78125 L 6.515625 -7.578125 C 7.816406 -7.378906 8.773438 -6.984375 9.390625 -6.390625 C 10.015625 -5.796875 10.328125 -4.953125 10.328125 -3.859375 C 10.328125 -3.265625 10.21875 -2.710938 10 -2.203125 C 9.789062 -1.703125 9.476562 -1.269531 9.0625 -0.90625 C 8.644531 -0.550781 8.128906 -0.273438 7.515625 -0.078125 C 6.910156 0.117188 6.21875 0.21875 5.4375 0.21875 Z M 5.4375 0.21875 "/></g></g><g style="fill:#101010;fill-opacity:1;"><g transform="translate(175.942063, 19.904773)"><path style="stroke:none" d="M 1.390625 0 L 1.390625 -12.546875 L 9.921875 -12.546875 L 9.921875 -10.109375 L 4.109375 -10.109375 L 4.109375 -7.546875 L 9.09375 -7.546875 L 9.09375 -5.140625 L 4.109375 -5.140625 L 4.109375 -2.421875 L 9.921875 -2.421875 L 9.921875 0 Z M 1.390625 0 "/></g></g></g></g></g></svg>