<?xml version="1.0" standalone="no"?>
<!DOCTYPE svg PUBLIC "-//W3C//DTD SVG 1.1//EN" "http://www.w3.org/Graphics/SVG/1.1/DTD/svg11.dtd">
<svg xmlns="http://www.w3.org/2000/svg" xmlns:xlink="http://www.w3.org/1999/xlink" version="1.1" id="Layer_1" x="0px" y="0px" viewBox="0 0 371.5 93.88" style="enable-background:new 0 0 371.5 93.88;" xml:space="preserve" width="371.5" height="93.87999725341797">
<style type="text/css">
	.st0{fill:#FFFFFF;stroke:#FFFFFF;stroke-miterlimit:10;}
	.st1{clip-path:url(#SVGID_2_);fill:#FFFFFF;stroke:#FFFFFF;stroke-miterlimit:10;}
</style>
<path class="st0" d="M28.6,17.42h0.15l6.27,16.4H22.33L28.6,17.42z M22.73,0L0,56.33h13.79l4.17-11.27H39.4l4.17,11.27h13.79  L34.62,0H22.73z"/>
<g>
	<defs>
		<rect id="SVGID_1_" y="0" width="100%" height="100%"/>
	</defs>
	<clipPath id="SVGID_2_">
		<use xlink:href="#SVGID_1_" style="overflow:visible;"/>
	</clipPath>
	<path class="st1" d="M53.12,56.33V21.31h12.08V25h0.12c3.14-3.14,6.49-4.71,10.04-4.71c1.72,0,3.44,0.23,5.15,0.69   c1.71,0.45,3.34,1.15,4.92,2.1c1.57,0.96,2.84,2.31,3.81,4.06c0.98,1.75,1.48,3.79,1.48,6.1v23.08H78.64V36.54   c0-1.82-0.58-3.41-1.75-4.77c-1.16-1.38-2.66-2.06-4.52-2.06c-1.82,0-3.47,0.71-4.96,2.12c-1.47,1.41-2.21,2.97-2.21,4.71v19.79   H53.12z"/>
	<path class="st1" d="M95.12,52.17c-3.89-3.46-5.83-7.9-5.83-13.31c0-5.42,2.03-9.86,6.08-13.33c4.05-3.48,9.06-5.23,15.02-5.23   c5.88,0,10.82,1.75,14.85,5.25c4.03,3.5,6.04,7.94,6.04,13.31c0,5.38-1.97,9.81-5.92,13.29c-3.93,3.47-8.93,5.21-14.98,5.21   C104.11,57.35,99.02,55.62,95.12,52.17 M104.47,32.92c-1.57,1.54-2.35,3.52-2.35,5.94c0,2.42,0.75,4.39,2.25,5.92   c1.51,1.52,3.5,2.27,5.96,2.27c2.36,0,4.3-0.77,5.83-2.31c1.53-1.55,2.29-3.51,2.29-5.88c0-2.42-0.79-4.39-2.35-5.94   c-1.57-1.54-3.5-2.31-5.77-2.31C108,30.6,106.06,31.37,104.47,32.92"/>
	<path class="st1" d="M130.53,56.33V21.31h12.08V25h0.12c3.14-3.14,6.49-4.71,10.04-4.71c1.72,0,3.44,0.23,5.15,0.69   c1.71,0.45,3.34,1.15,4.92,2.1c1.57,0.96,2.84,2.31,3.81,4.06c0.98,1.75,1.48,3.79,1.48,6.1v23.08h-12.08V36.54   c0-1.82-0.58-3.41-1.75-4.77c-1.16-1.38-2.66-2.06-4.52-2.06c-1.82,0-3.47,0.71-4.96,2.12c-1.47,1.41-2.21,2.97-2.21,4.71v19.79   H130.53z"/>
	<polygon class="st1" points="195.78,21.31 209.72,21.31 182.2,74.08 168.28,74.08 180.36,50.87 163.76,21.31 177.7,21.31    187.47,39.27  "/>
	<path class="st1" d="M206.03,56.33V21.31h12.08V25h0.12c3.14-3.14,6.49-4.71,10.04-4.71c2.54,0,4.93,0.52,7.17,1.56   c2.23,1.04,3.92,2.66,5.06,4.85c3.54-4.28,7.41-6.42,11.6-6.42c3.72,0,6.92,1.05,9.6,3.15c2.69,2.08,4.04,5.35,4.04,9.81v23.08   h-12.08V36.54c0-1.88-0.52-3.44-1.54-4.69c-1.03-1.25-2.56-1.88-4.6-1.88c-1.78,0-3.14,0.54-4.06,1.6   c-0.93,1.07-1.45,2.35-1.54,3.85v20.9h-12.08V36.54c0-1.88-0.51-3.44-1.54-4.69c-1.02-1.25-2.55-1.88-4.6-1.88   c-1.87,0-3.26,0.58-4.19,1.75c-0.93,1.16-1.4,2.53-1.4,4.12v20.48H206.03z"/>
	<path class="st1" d="M270.14,52.17c-3.89-3.46-5.83-7.9-5.83-13.31c0-5.42,2.03-9.86,6.08-13.33c4.05-3.48,9.06-5.23,15.02-5.23   c5.88,0,10.82,1.75,14.85,5.25c4.03,3.5,6.04,7.94,6.04,13.31c0,5.38-1.97,9.81-5.92,13.29c-3.93,3.47-8.93,5.21-14.98,5.21   C279.13,57.35,274.05,55.62,270.14,52.17 M279.5,32.92c-1.57,1.54-2.35,3.52-2.35,5.94c0,2.42,0.75,4.39,2.25,5.92   c1.51,1.52,3.5,2.27,5.96,2.27c2.36,0,4.3-0.77,5.83-2.31c1.53-1.55,2.29-3.51,2.29-5.88c0-2.42-0.79-4.39-2.35-5.94   c-1.57-1.54-3.5-2.31-5.77-2.31C283.03,30.6,281.08,31.37,279.5,32.92"/>
	<path class="st1" d="M316.95,21.31v16.65c0,3.47,0.52,5.94,1.56,7.4c1.05,1.45,2.83,2.17,5.33,2.17s4.27-0.72,5.31-2.17   c1.05-1.46,1.58-3.92,1.58-7.4V21.31h12.08V40.9c0,5.83-1.52,10.04-4.54,12.6c-3.03,2.57-7.84,3.85-14.44,3.85   c-6.6,0-11.41-1.28-14.44-3.85c-3.03-2.57-4.54-6.77-4.54-12.6V21.31H316.95z"/>
	<path class="st1" d="M359.13,20.29c2.01,0,3.99,0.23,5.94,0.69c1.96,0.45,3.42,0.9,4.38,1.36l1.44,0.69l-3.96,7.92   c-2.74-1.46-5.33-2.19-7.79-2.19c-1.37,0-2.33,0.16-2.9,0.46c-0.57,0.29-0.85,0.85-0.85,1.67c0,0.18,0.02,0.37,0.06,0.54   c0.05,0.18,0.15,0.35,0.27,0.52c0.14,0.16,0.26,0.29,0.38,0.4c0.12,0.11,0.32,0.24,0.58,0.38c0.28,0.14,0.49,0.24,0.65,0.31   c0.17,0.07,0.43,0.18,0.79,0.31c0.36,0.12,0.63,0.22,0.81,0.29c0.19,0.07,0.51,0.18,0.94,0.31c0.43,0.14,0.76,0.23,0.98,0.27   c1.42,0.42,2.65,0.88,3.69,1.38c1.05,0.5,2.16,1.18,3.31,2.04c1.17,0.87,2.07,1.95,2.71,3.27c0.63,1.32,0.96,2.83,0.96,4.52   c0,7.96-5.54,11.94-16.6,11.94c-2.5,0-4.88-0.39-7.12-1.15c-2.25-0.78-3.89-1.55-4.9-2.33l-1.5-1.23l4.92-8.25   c0.38,0.31,0.85,0.68,1.44,1.12c0.59,0.43,1.67,1.02,3.21,1.77c1.55,0.75,2.9,1.12,4.02,1.12c2.51,0,3.77-0.84,3.77-2.52   c0-0.78-0.32-1.38-0.96-1.81c-0.64-0.43-1.72-0.92-3.25-1.46c-1.53-0.55-2.72-1.06-3.58-1.52c-2.18-1.13-3.91-2.42-5.19-3.85   c-1.28-1.43-1.92-3.33-1.92-5.71c0-3.54,1.38-6.3,4.12-8.27C350.72,21.29,354.45,20.29,359.13,20.29"/>
	<path class="st1" d="M124.81,81.46c0.17,0,0.32,0.06,0.46,0.19c0.15,0.12,0.23,0.3,0.23,0.52c0,0.07-0.01,0.15-0.04,0.23   l-2.83,8.31c-0.04,0.12-0.12,0.22-0.23,0.29c-0.11,0.07-0.24,0.11-0.38,0.12c-0.12,0-0.25-0.03-0.38-0.1   c-0.11-0.08-0.2-0.19-0.25-0.31l-2.14-5.02l-2.12,5.02c-0.06,0.12-0.15,0.23-0.27,0.31c-0.12,0.07-0.24,0.1-0.38,0.1   c-0.12-0.01-0.25-0.05-0.36-0.12c-0.11-0.07-0.19-0.17-0.23-0.29l-2.83-8.31c-0.03-0.08-0.04-0.16-0.04-0.23   c0-0.21,0.07-0.38,0.21-0.5c0.15-0.13,0.32-0.21,0.5-0.21c0.13,0,0.27,0.04,0.39,0.12c0.12,0.07,0.2,0.17,0.23,0.29l2.33,6.9   l1.98-4.9c0.05-0.12,0.14-0.22,0.25-0.29c0.11-0.08,0.24-0.12,0.38-0.12c0.14,0,0.26,0.04,0.38,0.12c0.11,0.07,0.19,0.17,0.25,0.29   l1.94,4.9l2.31-6.9c0.03-0.12,0.1-0.22,0.23-0.29C124.52,81.51,124.65,81.46,124.81,81.46"/>
	<path class="st1" d="M130.36,83.8c1.61,0,2.42,1,2.42,3v3.67c0,0.2-0.06,0.35-0.19,0.48s-0.28,0.19-0.46,0.19   c-0.2,0-0.35-0.06-0.48-0.19c-0.12-0.12-0.17-0.28-0.17-0.48V86.8c0-1.19-0.51-1.79-1.52-1.79c-0.54,0-0.99,0.18-1.35,0.52   c-0.35,0.35-0.52,0.77-0.52,1.27v3.67c0,0.2-0.06,0.35-0.19,0.48c-0.12,0.12-0.29,0.19-0.48,0.19c-0.2,0-0.35-0.06-0.48-0.19   c-0.11-0.12-0.17-0.28-0.17-0.48v-8.86c0-0.18,0.06-0.33,0.19-0.46s0.28-0.19,0.46-0.19c0.19,0,0.36,0.06,0.48,0.19   c0.12,0.12,0.19,0.28,0.19,0.46v3.48c0.22-0.34,0.53-0.65,0.94-0.9C129.44,83.93,129.88,83.8,130.36,83.8"/>
	<path class="st1" d="M141.04,87.26c0,0.17-0.07,0.31-0.21,0.42c-0.12,0.11-0.27,0.17-0.44,0.17h-4.85   c0.07,0.67,0.32,1.21,0.77,1.62c0.44,0.41,0.98,0.6,1.62,0.6c0.44,0,0.8-0.06,1.08-0.19c0.28-0.14,0.52-0.3,0.73-0.5   c0.14-0.08,0.27-0.12,0.4-0.12c0.15,0,0.28,0.06,0.38,0.17c0.11,0.1,0.17,0.22,0.17,0.38c0,0.2-0.09,0.37-0.27,0.52   c-0.26,0.27-0.62,0.49-1.06,0.69c-0.43,0.18-0.88,0.27-1.33,0.27c-0.75,0-1.41-0.15-1.98-0.46c-0.56-0.32-0.99-0.76-1.29-1.31   c-0.31-0.57-0.46-1.21-0.46-1.92c0-0.76,0.15-1.44,0.46-2.02c0.32-0.58,0.74-1.03,1.25-1.33c0.53-0.32,1.09-0.48,1.69-0.48   c0.58,0,1.13,0.16,1.65,0.46c0.51,0.31,0.92,0.72,1.23,1.25C140.88,85.99,141.04,86.59,141.04,87.26 M137.68,84.96   c-0.52,0-0.96,0.15-1.33,0.44c-0.38,0.29-0.62,0.74-0.75,1.33h4.06v-0.1c-0.04-0.49-0.26-0.88-0.67-1.19   C138.61,85.12,138.17,84.96,137.68,84.96"/>
	<path class="st1" d="M146.14,83.76c0.23,0,0.44,0.06,0.6,0.19c0.18,0.12,0.27,0.28,0.27,0.46c0,0.22-0.06,0.4-0.17,0.52   c-0.11,0.11-0.25,0.17-0.42,0.17c-0.08,0-0.21-0.03-0.38-0.08c-0.2-0.07-0.35-0.1-0.46-0.1c-0.28,0-0.56,0.1-0.83,0.29   c-0.27,0.2-0.48,0.47-0.65,0.81c-0.17,0.35-0.25,0.73-0.25,1.15v3.31c0,0.2-0.06,0.35-0.19,0.48s-0.29,0.19-0.48,0.19   c-0.2,0-0.35-0.06-0.48-0.19c-0.11-0.12-0.17-0.28-0.17-0.48v-5.88c0-0.18,0.06-0.33,0.19-0.46c0.12-0.14,0.28-0.21,0.46-0.21   c0.19,0,0.35,0.07,0.48,0.21c0.12,0.12,0.19,0.28,0.19,0.46v0.69c0.19-0.44,0.49-0.8,0.9-1.08   C145.16,83.92,145.62,83.77,146.14,83.76"/>
	<path class="st1" d="M154.54,87.26c0,0.17-0.07,0.31-0.21,0.42c-0.12,0.11-0.27,0.17-0.44,0.17h-4.85   c0.07,0.67,0.32,1.21,0.77,1.62c0.44,0.41,0.98,0.6,1.62,0.6c0.44,0,0.8-0.06,1.08-0.19c0.28-0.14,0.52-0.3,0.73-0.5   c0.14-0.08,0.27-0.12,0.4-0.12c0.15,0,0.28,0.06,0.38,0.17c0.11,0.1,0.17,0.22,0.17,0.38c0,0.2-0.09,0.37-0.27,0.52   c-0.26,0.27-0.62,0.49-1.06,0.69c-0.43,0.18-0.88,0.27-1.33,0.27c-0.75,0-1.41-0.15-1.98-0.46c-0.56-0.32-0.99-0.76-1.29-1.31   c-0.31-0.57-0.46-1.21-0.46-1.92c0-0.76,0.15-1.44,0.46-2.02c0.32-0.58,0.74-1.03,1.25-1.33c0.53-0.32,1.09-0.48,1.69-0.48   c0.58,0,1.13,0.16,1.65,0.46c0.51,0.31,0.92,0.72,1.23,1.25C154.38,85.99,154.54,86.59,154.54,87.26 M151.19,84.96   c-0.52,0-0.96,0.15-1.33,0.44c-0.38,0.29-0.62,0.74-0.75,1.33h4.06v-0.1c-0.04-0.49-0.26-0.88-0.67-1.19   C152.11,85.12,151.67,84.96,151.19,84.96"/>
	<path class="st1" d="M161.09,90.46c0,0.2-0.06,0.35-0.19,0.48s-0.28,0.19-0.46,0.19c-0.2,0-0.35-0.06-0.48-0.19   c-0.12-0.12-0.17-0.28-0.17-0.48v-5.94c0-0.19,0.05-0.35,0.17-0.48c0.12-0.12,0.28-0.19,0.48-0.19c0.18,0,0.33,0.06,0.46,0.19   s0.19,0.29,0.19,0.48V90.46z M160.42,82.94c-0.27,0-0.45-0.05-0.56-0.15c-0.11-0.09-0.17-0.25-0.17-0.46v-0.21   c0-0.22,0.06-0.38,0.19-0.46c0.12-0.09,0.31-0.15,0.56-0.15s0.43,0.05,0.54,0.15c0.12,0.1,0.19,0.25,0.19,0.46v0.21   c0,0.22-0.06,0.38-0.19,0.48C160.87,82.9,160.68,82.94,160.42,82.94"/>
	<path class="st1" d="M168.81,80.96c0.19,0,0.35,0.06,0.48,0.19c0.12,0.11,0.19,0.27,0.19,0.46v8.85c0,0.2-0.06,0.35-0.19,0.48   s-0.29,0.19-0.48,0.19c-0.18,0-0.33-0.06-0.46-0.19s-0.19-0.28-0.19-0.48v-0.38c-0.22,0.33-0.54,0.62-0.96,0.85   c-0.42,0.22-0.87,0.33-1.35,0.33c-0.61,0-1.18-0.16-1.69-0.48c-0.5-0.33-0.9-0.78-1.19-1.35c-0.29-0.57-0.44-1.21-0.44-1.94   c0-0.71,0.13-1.34,0.42-1.92c0.29-0.58,0.69-1.03,1.19-1.35c0.51-0.32,1.07-0.48,1.67-0.48c0.48,0,0.94,0.1,1.35,0.31   c0.42,0.2,0.75,0.45,1,0.77v-3.23c0-0.19,0.06-0.34,0.19-0.46C168.48,81.03,168.63,80.96,168.81,80.96 M166.02,90.07   c0.43,0,0.81-0.11,1.15-0.33c0.33-0.22,0.59-0.53,0.77-0.92c0.19-0.39,0.29-0.82,0.29-1.31c0-0.47-0.1-0.9-0.29-1.29   c-0.18-0.39-0.44-0.69-0.77-0.92c-0.33-0.22-0.72-0.33-1.15-0.33c-0.43,0-0.81,0.11-1.15,0.33c-0.33,0.22-0.6,0.53-0.79,0.92   c-0.2,0.39-0.29,0.82-0.29,1.29c0,0.49,0.09,0.93,0.29,1.31c0.19,0.39,0.46,0.7,0.79,0.92C165.21,89.96,165.59,90.07,166.02,90.07"/>
	<path class="st1" d="M177.72,87.26c0,0.17-0.07,0.31-0.21,0.42c-0.12,0.11-0.27,0.17-0.44,0.17h-4.85   c0.07,0.67,0.32,1.21,0.77,1.62c0.44,0.41,0.98,0.6,1.62,0.6c0.44,0,0.8-0.06,1.08-0.19c0.28-0.14,0.52-0.3,0.73-0.5   c0.14-0.08,0.27-0.12,0.4-0.12c0.15,0,0.28,0.06,0.38,0.17c0.11,0.1,0.17,0.22,0.17,0.38c0,0.2-0.09,0.37-0.27,0.52   c-0.26,0.27-0.62,0.49-1.06,0.69c-0.43,0.18-0.88,0.27-1.33,0.27c-0.75,0-1.41-0.15-1.98-0.46c-0.56-0.32-0.99-0.76-1.29-1.31   c-0.31-0.57-0.46-1.21-0.46-1.92c0-0.76,0.15-1.44,0.46-2.02c0.32-0.58,0.74-1.03,1.25-1.33c0.53-0.32,1.09-0.48,1.69-0.48   c0.58,0,1.13,0.16,1.65,0.46c0.51,0.31,0.92,0.72,1.23,1.25C177.56,85.99,177.72,86.59,177.72,87.26 M174.37,84.96   c-0.52,0-0.96,0.15-1.33,0.44c-0.38,0.29-0.62,0.74-0.75,1.33h4.06v-0.1c-0.04-0.49-0.26-0.88-0.67-1.19   C175.29,85.12,174.85,84.96,174.37,84.96"/>
	<path class="st1" d="M185.07,83.84c0.19,0,0.35,0.06,0.48,0.19c0.12,0.11,0.19,0.27,0.19,0.48v5.96c0,0.2-0.06,0.35-0.19,0.48   s-0.29,0.19-0.48,0.19c-0.18,0-0.33-0.06-0.46-0.19s-0.19-0.28-0.19-0.48v-0.35c-0.24,0.32-0.56,0.6-0.98,0.83   c-0.41,0.22-0.85,0.33-1.33,0.33c-0.61,0-1.18-0.16-1.69-0.48c-0.52-0.33-0.92-0.78-1.21-1.35c-0.28-0.57-0.42-1.21-0.42-1.94   c0-0.71,0.13-1.34,0.42-1.92c0.29-0.58,0.69-1.03,1.19-1.35c0.51-0.32,1.07-0.48,1.67-0.48c0.48,0,0.94,0.1,1.35,0.31   c0.43,0.2,0.76,0.45,1,0.77v-0.33c0-0.19,0.06-0.36,0.19-0.48S184.89,83.84,185.07,83.84 M182.28,90.07c0.43,0,0.81-0.11,1.15-0.33   c0.33-0.22,0.59-0.53,0.77-0.92c0.19-0.39,0.29-0.82,0.29-1.31c0-0.47-0.1-0.89-0.29-1.27c-0.18-0.39-0.44-0.69-0.77-0.92   c-0.33-0.23-0.72-0.35-1.15-0.35c-0.43,0-0.81,0.11-1.15,0.33c-0.33,0.22-0.6,0.53-0.79,0.92c-0.2,0.38-0.29,0.81-0.29,1.29   c0,0.49,0.09,0.93,0.29,1.31c0.19,0.39,0.46,0.7,0.79,0.92C181.47,89.96,181.85,90.07,182.28,90.07"/>
	<path class="st1" d="M193.44,85.21v4.08c0,0.46,0.2,0.69,0.6,0.69c0.07,0,0.16-0.01,0.27-0.04c0.11-0.03,0.19-0.04,0.25-0.04   c0.12,0,0.23,0.05,0.31,0.15c0.08,0.1,0.12,0.22,0.12,0.38c0,0.2-0.11,0.36-0.33,0.5c-0.22,0.14-0.47,0.21-0.75,0.21   c-0.29,0-0.57-0.03-0.83-0.08c-0.25-0.07-0.47-0.23-0.67-0.5c-0.2-0.26-0.29-0.66-0.29-1.19v-4.15h-0.79   c-0.18,0-0.33-0.05-0.44-0.17c-0.11-0.12-0.17-0.28-0.17-0.46c0-0.17,0.05-0.3,0.17-0.42c0.11-0.11,0.26-0.17,0.44-0.17h0.79v-1.15   c0-0.19,0.06-0.35,0.19-0.48s0.28-0.19,0.48-0.19c0.18,0,0.33,0.06,0.46,0.19s0.19,0.29,0.19,0.48v1.15h1.12   c0.18,0,0.32,0.06,0.44,0.19c0.11,0.11,0.17,0.25,0.17,0.42c0,0.18-0.06,0.33-0.17,0.44c-0.11,0.12-0.26,0.17-0.44,0.17H193.44z"/>
	<path class="st1" d="M202.53,83.84c0.19,0,0.35,0.06,0.48,0.19c0.12,0.11,0.19,0.27,0.19,0.48v5.96c0,0.2-0.06,0.35-0.19,0.48   s-0.29,0.19-0.48,0.19c-0.18,0-0.33-0.06-0.46-0.19s-0.19-0.28-0.19-0.48v-0.35c-0.24,0.32-0.56,0.6-0.98,0.83   c-0.41,0.22-0.85,0.33-1.33,0.33c-0.61,0-1.18-0.16-1.69-0.48c-0.52-0.33-0.92-0.78-1.21-1.35c-0.28-0.57-0.42-1.21-0.42-1.94   c0-0.71,0.13-1.34,0.42-1.92c0.29-0.58,0.69-1.03,1.19-1.35c0.51-0.32,1.07-0.48,1.67-0.48c0.48,0,0.94,0.1,1.35,0.31   c0.43,0.2,0.76,0.45,1,0.77v-0.33c0-0.19,0.06-0.36,0.19-0.48S202.35,83.84,202.53,83.84 M199.74,90.07c0.43,0,0.81-0.11,1.15-0.33   c0.33-0.22,0.59-0.53,0.77-0.92c0.19-0.39,0.29-0.82,0.29-1.31c0-0.47-0.1-0.89-0.29-1.27c-0.18-0.39-0.44-0.69-0.77-0.92   c-0.33-0.23-0.72-0.35-1.15-0.35c-0.43,0-0.81,0.11-1.15,0.33c-0.33,0.22-0.6,0.53-0.79,0.92c-0.2,0.38-0.29,0.81-0.29,1.29   c0,0.49,0.09,0.93,0.29,1.31c0.19,0.39,0.46,0.7,0.79,0.92C198.93,89.96,199.31,90.07,199.74,90.07"/>
	<path class="st1" d="M211,89.98c0.13,0.16,0.21,0.31,0.21,0.48c0,0.2-0.07,0.35-0.21,0.48c-0.14,0.11-0.29,0.17-0.44,0.17   c-0.21,0-0.38-0.07-0.5-0.21l-2.71-2.88l-0.81,0.73v1.71c0,0.2-0.06,0.35-0.19,0.48s-0.28,0.19-0.46,0.19   c-0.2,0-0.35-0.06-0.48-0.19s-0.19-0.28-0.19-0.48v-8.85c0-0.18,0.06-0.33,0.19-0.46s0.28-0.19,0.48-0.19   c0.18,0,0.33,0.06,0.46,0.19s0.19,0.28,0.19,0.46v5.58l3.38-3.08c0.15-0.14,0.31-0.21,0.48-0.21c0.15,0,0.29,0.07,0.42,0.21   c0.12,0.12,0.19,0.27,0.19,0.42c0,0.18-0.08,0.34-0.25,0.48l-2.38,2.12L211,89.98z"/>
	<path class="st1" d="M219.06,87.26c0,0.17-0.07,0.31-0.21,0.42c-0.12,0.11-0.27,0.17-0.44,0.17h-4.85   c0.07,0.67,0.32,1.21,0.77,1.62c0.44,0.41,0.98,0.6,1.62,0.6c0.44,0,0.8-0.06,1.08-0.19c0.28-0.14,0.52-0.3,0.73-0.5   c0.14-0.08,0.27-0.12,0.4-0.12c0.15,0,0.28,0.06,0.38,0.17c0.11,0.1,0.17,0.22,0.17,0.38c0,0.2-0.09,0.37-0.27,0.52   c-0.26,0.27-0.62,0.49-1.06,0.69c-0.43,0.18-0.88,0.27-1.33,0.27c-0.75,0-1.41-0.15-1.98-0.46c-0.56-0.32-0.99-0.76-1.29-1.31   c-0.31-0.57-0.46-1.21-0.46-1.92c0-0.76,0.15-1.44,0.46-2.02c0.32-0.58,0.74-1.03,1.25-1.33c0.53-0.32,1.09-0.48,1.69-0.48   c0.58,0,1.13,0.16,1.65,0.46c0.51,0.31,0.92,0.72,1.23,1.25C218.9,85.99,219.06,86.59,219.06,87.26 M215.71,84.96   c-0.52,0-0.96,0.15-1.33,0.44c-0.38,0.29-0.62,0.74-0.75,1.33h4.06v-0.1c-0.04-0.49-0.26-0.88-0.67-1.19   C216.63,85.12,216.19,84.96,215.71,84.96"/>
	<path class="st1" d="M223.97,90.01c-0.08-0.12-0.12-0.25-0.12-0.38c0-0.18,0.09-0.33,0.29-0.46c0.09-0.07,0.2-0.1,0.31-0.1   c0.17,0,0.32,0.07,0.46,0.21c0.28,0.31,0.57,0.54,0.88,0.71c0.32,0.16,0.7,0.23,1.15,0.23c0.34-0.01,0.65-0.09,0.92-0.25   c0.26-0.15,0.4-0.39,0.4-0.73c0-0.32-0.14-0.55-0.42-0.71c-0.26-0.17-0.66-0.32-1.17-0.46c-0.52-0.14-0.95-0.28-1.29-0.44   c-0.33-0.15-0.62-0.36-0.85-0.65c-0.24-0.29-0.35-0.67-0.35-1.15c0-0.42,0.11-0.78,0.35-1.08c0.23-0.32,0.55-0.56,0.94-0.73   c0.39-0.18,0.81-0.27,1.27-0.27c0.44,0,0.88,0.08,1.31,0.25c0.43,0.17,0.78,0.42,1.06,0.75c0.11,0.14,0.17,0.28,0.17,0.42   c0,0.14-0.07,0.28-0.21,0.42c-0.1,0.08-0.22,0.12-0.35,0.12c-0.17,0-0.3-0.05-0.4-0.17c-0.2-0.22-0.43-0.39-0.71-0.5   c-0.28-0.12-0.59-0.19-0.94-0.19c-0.35,0-0.65,0.07-0.9,0.21c-0.24,0.14-0.35,0.38-0.35,0.73c0.01,0.32,0.15,0.56,0.42,0.71   c0.28,0.16,0.69,0.31,1.25,0.46c0.49,0.12,0.89,0.27,1.21,0.42c0.32,0.14,0.59,0.35,0.81,0.65c0.22,0.29,0.33,0.68,0.33,1.15   c0,0.43-0.12,0.81-0.38,1.12c-0.25,0.31-0.58,0.55-0.98,0.73c-0.39,0.17-0.81,0.25-1.25,0.25c-0.58,0-1.12-0.1-1.62-0.29   C224.71,90.78,224.3,90.45,223.97,90.01"/>
	<path class="st1" d="M234.52,83.8c1.61,0,2.42,1,2.42,3v3.67c0,0.2-0.06,0.35-0.19,0.48s-0.28,0.19-0.46,0.19   c-0.2,0-0.35-0.06-0.48-0.19c-0.12-0.12-0.17-0.28-0.17-0.48V86.8c0-1.19-0.51-1.79-1.52-1.79c-0.54,0-0.99,0.18-1.35,0.52   c-0.35,0.35-0.52,0.77-0.52,1.27v3.67c0,0.2-0.06,0.35-0.19,0.48s-0.29,0.19-0.48,0.19c-0.2,0-0.35-0.06-0.48-0.19   c-0.11-0.12-0.17-0.28-0.17-0.48v-8.86c0-0.18,0.06-0.33,0.19-0.46s0.28-0.19,0.46-0.19c0.19,0,0.35,0.06,0.48,0.19   s0.19,0.28,0.19,0.46v3.48c0.22-0.34,0.53-0.65,0.94-0.9C233.6,83.93,234.04,83.8,234.52,83.8"/>
	<path class="st1" d="M244.72,83.84c0.19,0,0.35,0.06,0.48,0.19c0.12,0.11,0.19,0.27,0.19,0.48v5.96c0,0.2-0.06,0.35-0.19,0.48   s-0.29,0.19-0.48,0.19c-0.18,0-0.33-0.06-0.46-0.19s-0.19-0.28-0.19-0.48v-0.35c-0.24,0.32-0.56,0.6-0.98,0.83   c-0.41,0.22-0.85,0.33-1.33,0.33c-0.61,0-1.18-0.16-1.69-0.48c-0.52-0.33-0.92-0.78-1.21-1.35c-0.28-0.57-0.42-1.21-0.42-1.94   c0-0.71,0.13-1.34,0.42-1.92c0.29-0.58,0.69-1.03,1.19-1.35c0.51-0.32,1.07-0.48,1.67-0.48c0.48,0,0.94,0.1,1.35,0.31   c0.43,0.2,0.76,0.45,1,0.77v-0.33c0-0.19,0.06-0.36,0.19-0.48S244.54,83.84,244.72,83.84 M241.93,90.07c0.43,0,0.81-0.11,1.15-0.33   c0.33-0.22,0.59-0.53,0.77-0.92c0.19-0.39,0.29-0.82,0.29-1.31c0-0.47-0.1-0.89-0.29-1.27c-0.18-0.39-0.44-0.69-0.77-0.92   c-0.33-0.23-0.72-0.35-1.15-0.35c-0.43,0-0.81,0.11-1.15,0.33c-0.33,0.22-0.6,0.53-0.79,0.92c-0.2,0.38-0.29,0.81-0.29,1.29   c0,0.49,0.09,0.93,0.29,1.31c0.19,0.39,0.46,0.7,0.79,0.92C241.12,89.96,241.5,90.07,241.93,90.07"/>
	<path class="st1" d="M250.92,83.8c0.62,0,1.19,0.16,1.69,0.48c0.51,0.32,0.92,0.77,1.21,1.33c0.29,0.57,0.44,1.21,0.44,1.92   c0,0.72-0.15,1.37-0.44,1.94c-0.29,0.56-0.7,0.99-1.21,1.31c-0.5,0.32-1.05,0.48-1.65,0.48c-0.49,0-0.94-0.1-1.35-0.31   c-0.41-0.21-0.73-0.46-0.98-0.77v3.04c0,0.19-0.06,0.35-0.19,0.48s-0.29,0.19-0.48,0.19c-0.18,0-0.33-0.06-0.46-0.19   s-0.19-0.29-0.19-0.48v-8.65c0-0.19,0.05-0.35,0.17-0.48c0.12-0.12,0.28-0.19,0.48-0.19c0.19,0,0.35,0.06,0.48,0.19   s0.19,0.29,0.19,0.48v0.4c0.21-0.32,0.52-0.59,0.94-0.81C250,83.92,250.45,83.8,250.92,83.8 M250.78,90.05   c0.43,0,0.81-0.11,1.15-0.33c0.33-0.22,0.59-0.52,0.77-0.9c0.19-0.39,0.29-0.82,0.29-1.29c0-0.47-0.1-0.9-0.29-1.27   c-0.18-0.39-0.44-0.69-0.77-0.92c-0.33-0.22-0.72-0.33-1.15-0.33c-0.43,0-0.82,0.11-1.17,0.33c-0.33,0.21-0.6,0.51-0.79,0.89   c-0.18,0.39-0.27,0.82-0.27,1.29c0,0.47,0.09,0.91,0.27,1.29c0.19,0.39,0.46,0.7,0.79,0.92C249.96,89.94,250.35,90.05,250.78,90.05   "/>
	<path class="st1" d="M262.07,87.26c0,0.17-0.07,0.31-0.21,0.42c-0.12,0.11-0.27,0.17-0.44,0.17h-4.85   c0.07,0.67,0.32,1.21,0.77,1.62c0.44,0.41,0.98,0.6,1.62,0.6c0.44,0,0.8-0.06,1.08-0.19c0.28-0.14,0.52-0.3,0.73-0.5   c0.14-0.08,0.27-0.12,0.39-0.12c0.15,0,0.28,0.06,0.38,0.17c0.11,0.1,0.17,0.22,0.17,0.38c0,0.2-0.09,0.37-0.27,0.52   c-0.26,0.27-0.62,0.49-1.06,0.69c-0.43,0.18-0.88,0.27-1.33,0.27c-0.75,0-1.41-0.15-1.98-0.46c-0.56-0.32-0.99-0.76-1.29-1.31   c-0.31-0.57-0.46-1.21-0.46-1.92c0-0.76,0.15-1.44,0.46-2.02c0.32-0.58,0.73-1.03,1.25-1.33c0.53-0.32,1.09-0.48,1.69-0.48   c0.58,0,1.13,0.16,1.65,0.46c0.51,0.31,0.92,0.72,1.23,1.25C261.9,85.99,262.07,86.59,262.07,87.26 M258.71,84.96   c-0.52,0-0.96,0.15-1.33,0.44c-0.38,0.29-0.62,0.74-0.75,1.33h4.06v-0.1c-0.04-0.49-0.26-0.88-0.67-1.19   C259.63,85.12,259.2,84.96,258.71,84.96"/>
</g>
</svg>